<?xml version="1.0" encoding="utf-8"?>
<!-- Generator: Adobe Illustrator 21.0.0, SVG Export Plug-In . SVG Version: 6.00 Build 0)  -->
<svg version="1.1" id="Ebene_1" xmlns="http://www.w3.org/2000/svg" xmlns:xlink="http://www.w3.org/1999/xlink" x="0px" y="0px"
	 viewBox="0 0 440.8 115.8" style="enable-background:new 0 0 440.8 115.8;" xml:space="preserve">
<style type="text/css">
	.st0{fill:#323430;}
	.st1{fill:#323430;stroke:#EDEDED;stroke-width:2.8346;stroke-miterlimit:10;}
</style>
<g>
	<path class="st0" d="M212.3,80.6 M190,63.2l-0.3,0l-11.4,39.3l-18.9-0.1l-22-59.3l20,0.1l12.2,37.2l0.2,0l10.5-37.1"/>
	<path class="st0" d="M254.7,24.9c0-2.9,1.1-5.4,3.2-7.5c2.1-2.1,4.7-3.1,7.7-3.1c3,0,5.6,1.1,7.7,3.1c2.1,2.1,3.2,4.6,3.2,7.5
		c0,2.9-1.1,5.4-3.2,7.5c-2.1,2.1-4.7,3.1-7.7,3.1c-3,0-5.6-1.1-7.7-3.1C255.7,30.3,254.7,27.8,254.7,24.9z M256.1,43.6l18.8,0.1
		l-0.2,59.2l-18.8-0.1L256.1,43.6z"/>
	<path class="st0" d="M295.4,43.7l18,0.1l0,8l0.2,0c0.6-1.1,1.4-2.3,2.5-3.4c1.1-1.1,2.4-2.1,3.9-3c1.5-0.9,3.2-1.6,5.1-2.2
		c1.9-0.6,4-0.8,6.3-0.8c4.8,0,8.6,0.7,11.5,2.2c2.9,1.4,5.2,3.4,6.8,5.9c1.6,2.5,2.7,5.5,3.3,8.9c0.6,3.4,0.8,7.1,0.8,11.1
		l-0.1,32.7l-18.8-0.1l0.1-29c0-1.7,0-3.5-0.2-5.3c-0.1-1.8-0.5-3.5-1.1-5.1c-0.6-1.5-1.6-2.8-2.9-3.8c-1.3-1-3.1-1.5-5.6-1.5
		s-4.4,0.4-5.9,1.3c-1.5,0.8-2.7,2-3.5,3.4c-0.8,1.4-1.3,3-1.6,4.8c-0.3,1.8-0.4,3.7-0.4,5.6L314,103l-18.8-0.1L295.4,43.7z"/>
	<path class="st0" d="M426.6,93.2c-3,3.7-6.8,6.6-11.4,8.6c-4.6,2-9.4,3-14.3,3c-4.7,0-9.1-0.8-13.2-2.2c-4.1-1.5-7.7-3.6-10.7-6.3
		c-3-2.7-5.4-6-7.2-9.8c-1.7-3.8-2.6-8.1-2.6-12.8c0-4.7,0.9-9,2.7-12.8c1.8-3.8,4.2-7.1,7.2-9.8c3.1-2.7,6.6-4.8,10.8-6.2
		c4.1-1.4,8.5-2.2,13.2-2.1c4.3,0,8.3,0.8,11.8,2.2c3.5,1.5,6.5,3.6,9,6.3c2.4,2.7,4.3,6,5.7,9.8c1.3,3.8,2,8.1,2,12.8l0,5.7
		L386,79.4c0.7,3.5,2.4,6.3,4.8,8.4s5.6,3.1,9.2,3.1c3.1,0,5.7-0.6,7.8-2c2.1-1.3,4-3.1,5.6-5.2L426.6,93.2z M410.8,67.1
		c0.1-3.1-0.9-5.7-3.1-7.9c-2.2-2.2-5-3.3-8.4-3.3c-2.1,0-3.9,0.3-5.5,1c-1.6,0.6-2.9,1.5-4.1,2.5c-1.1,1-2,2.2-2.6,3.5
		c-0.6,1.3-1,2.7-1.1,4.2L410.8,67.1z"/>
</g>
<path class="st0" d="M3.9,42.6l5,0l5.2,17.6h0.1L20,42.6l4.8,0l5.9,17.6h0.1l5.1-17.6l4.8,0l-7.7,23.5l-4.5,0l-6.2-17.6h-0.1
	l-5.7,17.6l-4.8,0L3.9,42.6z"/>
<path class="st0" d="M47,28.7l4.5,0l-0.1,17.6h0.1c0.6-1.3,1.5-2.3,2.9-3c1.4-0.8,3-1.2,4.8-1.1c1.1,0,2.2,0.2,3.2,0.5
	c1,0.4,1.9,0.9,2.7,1.6c0.8,0.7,1.4,1.7,1.9,2.8c0.5,1.1,0.7,2.5,0.7,4l-0.1,15.1l-4.5,0l0.1-13.9c0-1.1-0.1-2-0.4-2.8
	c-0.3-0.8-0.7-1.4-1.2-1.9c-0.5-0.5-1.1-0.8-1.7-1c-0.6-0.2-1.3-0.3-2-0.3c-0.9,0-1.8,0.1-2.6,0.4c-0.8,0.3-1.5,0.8-2.1,1.4
	c-0.6,0.6-1.1,1.5-1.4,2.5c-0.3,1-0.5,2.2-0.5,3.5l0,12.1l-4.5,0L47,28.7z"/>
<path class="st0" d="M117.8,46.8l-6.4,0l0,10.7c0,0.7,0,1.3,0,2c0,0.6,0.2,1.2,0.4,1.7c0.2,0.5,0.5,0.9,1,1.2s1.1,0.5,2,0.5
	c0.5,0,1.1,0,1.6-0.1c0.6-0.1,1.1-0.3,1.5-0.5l0,4.1c-0.5,0.3-1.2,0.5-2.1,0.6c-0.8,0.1-1.5,0.2-2,0.2c-1.7,0-3.1-0.3-4-0.7
	c-0.9-0.5-1.6-1.1-2.1-1.9c-0.4-0.8-0.7-1.6-0.8-2.6c-0.1-0.9-0.1-1.9-0.1-2.9l0-12.3l-5.2,0l0-3.9l5.2,0l0-6.6l4.5,0l0,6.6l6.4,0
	L117.8,46.8z"/>
<path class="st0" d="M86.6,84l-6.4,0l0,10.7c0,0.7,0,1.3,0,2c0,0.6,0.2,1.2,0.4,1.7c0.2,0.5,0.5,0.9,1,1.2c0.4,0.3,1.1,0.5,2,0.5
	c0.5,0,1.1,0,1.6-0.1c0.6-0.1,1.1-0.3,1.5-0.5l0,4.1c-0.5,0.3-1.2,0.5-2.1,0.6c-0.8,0.1-1.5,0.2-2,0.2c-1.7,0-3.1-0.3-4-0.7
	c-0.9-0.5-1.6-1.1-2.1-1.9c-0.4-0.8-0.7-1.6-0.8-2.6s-0.1-1.9-0.1-2.9l0-12.3l-5.2,0l0-3.9l5.2,0l0-6.6l4.5,0l0,6.6l6.4,0L86.6,84z"
	/>
<g>
	<g>
		<path class="st0" d="M112.3,84.6c-0.5-1.1-1.1-2.1-1.9-2.8c-0.8-0.7-1.7-1.3-2.7-1.6c-1-0.4-2.1-0.5-3.2-0.5
			c-1.8,0-3.4,0.4-4.8,1.1c-1.4,0.8-2.9,1.8-3.4,3V66.2v0c-0.1-0.6,0-1.1,0-1.8c0-0.7,0-1.5,0-2.3l0-12c0-1-0.2-2-0.6-3
			c-0.4-0.9-1-1.8-1.8-2.5c-0.8-0.7-1.8-1.3-3-1.7c-1.2-0.4-2.7-0.7-4.4-0.7c-1.7,0-3.3,0.3-5,0.9c-1.7,0.6-3.1,1.4-4.4,2.6l2.7,2.8
			c0.4-0.3,0.8-0.6,1.2-0.9c0.4-0.3,0.9-0.6,1.4-0.9c0.5-0.2,1.1-0.5,1.8-0.6c0.6-0.2,1.4-0.2,2.3-0.2c1,0,1.8,0.1,2.5,0.4
			c0.7,0.3,1.3,0.7,1.7,1.1c0.5,0.5,0.8,1,1,1.6c0.2,0.6,0.3,1.2,0.3,1.8l0,1l-3.3,0c-1.8,0-3.5,0.1-5,0.4c-1.6,0.3-2.9,0.7-4.1,1.4
			c-1.2,0.6-2.1,1.5-2.8,2.5c-0.7,1-1,2.3-1,3.8c0,1.2,0.2,2.2,0.6,3.1c0.4,0.9,1,1.6,1.8,2.2c0.7,0.6,1.6,1,2.6,1.3
			c1,0.3,2,0.5,3.1,0.5c1.8,0,3.4-0.3,4.7-0.9c1.4-0.6,2.5-1.7,3.5-3.2h0.1c0,1.1,0,2.2,0,3.3l-0.1,37.5l4.1,0V91.6
			c0-1.4,0.5-2.5,0.9-3.5c0.3-1,0.8-1.8,1.4-2.5c0.6-0.6,1.3-1.1,2.1-1.4c0.8-0.3,1.7-0.4,2.6-0.4c0.7,0,1.4,0.1,2,0.3
			c0.6,0.2,1.2,0.6,1.7,1c0.5,0.5,0.9,1.1,1.2,1.9c0.3,0.8,0.4,1.7,0.4,2.8l-0.1,13.9l4.5,0l0.1-15.1
			C113,87.1,112.8,85.7,112.3,84.6z M92,56.6c0,0.8-0.1,1.6-0.4,2.4c-0.2,0.8-0.6,1.5-1.1,2.2c-0.5,0.7-1.2,1.2-2.1,1.6
			c-0.9,0.4-1.9,0.6-3.1,0.6c-1.6,0-2.8-0.3-3.7-0.9c-0.9-0.6-1.4-1.6-1.4-2.9c0-0.9,0.3-1.7,0.9-2.3c0.6-0.6,1.3-1.1,2.2-1.4
			c0.9-0.3,1.9-0.5,3-0.7c1.1-0.1,2.2-0.2,3.3-0.2l2.4,0L92,56.6z"/>
	</g>
</g>
<path class="st0" d="M122.9,93.7c0,1,0.2,2,0.7,2.8c0.4,0.8,1,1.6,1.8,2.2c0.7,0.6,1.6,1.1,2.5,1.4c1,0.3,2,0.5,3,0.5
	c1.4,0,2.6-0.3,3.6-1c1-0.6,2-1.5,2.8-2.5l3.4,2.6c-2.5,3.2-6,4.8-10.4,4.8c-1.9,0-3.5-0.3-5-1c-1.5-0.6-2.8-1.5-3.8-2.6
	c-1-1.1-1.8-2.4-2.4-3.9c-0.6-1.5-0.8-3.1-0.8-4.9c0-1.8,0.3-3.4,0.9-4.9c0.6-1.5,1.5-2.8,2.5-3.9c1.1-1.1,2.4-2,3.9-2.6
	c1.5-0.6,3.1-0.9,4.9-0.9c2.1,0,3.8,0.4,5.3,1.1c1.4,0.7,2.6,1.7,3.5,2.9c0.9,1.2,1.6,2.5,2,4c0.4,1.5,0.6,3,0.6,4.5l0,1.6
	L122.9,93.7z M137,90.2c0-1-0.2-1.9-0.5-2.7c-0.3-0.8-0.7-1.5-1.3-2.2c-0.6-0.6-1.3-1.1-2.1-1.4c-0.8-0.4-1.8-0.5-3-0.5
	c-1.1,0-2.1,0.2-3,0.6c-0.9,0.4-1.7,0.9-2.3,1.6c-0.6,0.7-1.1,1.4-1.5,2.2c-0.4,0.8-0.5,1.6-0.5,2.4L137,90.2z"/>
<ellipse class="st1" cx="213.4" cy="94.2" rx="14" ry="14.8"/>
<ellipse class="st1" cx="226" cy="73.4" rx="14" ry="14.8"/>
<ellipse class="st1" cx="202.2" cy="73.4" rx="14" ry="14.8"/>
<ellipse class="st1" cx="191.8" cy="50.7" rx="14" ry="14.8"/>
<ellipse class="st1" cx="236.7" cy="50.7" rx="14" ry="14.8"/>
<ellipse class="st1" cx="213.4" cy="50.7" rx="14" ry="14.8"/>
<g>
	<g>
		<g>
			<path class="st0" d="M226.4,11.7c-1.2,2.4-2.8,4.4-4.9,6.1c-1.1,0.9-2.3,1.7-3.5,2.3c-0.8,0.3-1.7,0.7-2.5,1
				c-2.4,1.4-3.5,0.8-3.2-1.7c-1.1-2.5-0.6-3,1.5-1.3c1.4,0.2,2.3,1,2.7,2.3c1.1,1.6,1.3,3.6,1.2,5.5c-0.2,3.8-2,7.2-3.9,10.4
				c-1,1.7,1.5,3.7,2.8,2.1c3-3.6,5.7-7.9,9.1-11c2.1-2,4.6-3.6,7.5-4.3c2.6-0.7,7.7-0.9,4.3,3.1c-3.6,4.2-9.4,5.6-14.7,4.8
				c-2.2-0.3-3.2,3.1-0.9,3.4c6.1,0.9,12.5-0.3,17.1-4.7c2.7-2.6,7-8.5,1.5-10.1c-12.3-3.7-19.8,8.5-26.4,16.4
				c0.9,0.7,1.9,1.4,2.8,2.1c3.4-5.8,6.6-14.1,2.4-20.3c-2.8-4.1-10-6.2-13.3-1.3c-3.1,4.7,2.4,8.7,6.8,8.7
				c7.1-0.1,13.6-5.7,16.7-11.7C230.5,11.5,227.4,9.7,226.4,11.7L226.4,11.7z"/>
		</g>
	</g>
</g>
</svg>
