<svg width="427" height="101" viewBox="0 0 427 101" fill="none" xmlns="http://www.w3.org/2000/svg">
<path d="M187 53.1996H186.7L175.3 92.4996L156.4 92.3996L134.4 33.0996L154.4 33.1996L166.6 70.3996H166.8L177.3 33.2996" fill="#323430"/>
<path d="M251.7 14.8998C251.7 11.9998 252.8 9.4998 254.9 7.3998C257 5.2998 259.6 4.2998 262.6 4.2998C265.6 4.2998 268.2 5.3998 270.3 7.3998C272.4 9.4998 273.5 11.9998 273.5 14.8998C273.5 17.7998 272.4 20.2998 270.3 22.3998C268.2 24.4998 265.6 25.4998 262.6 25.4998C259.6 25.4998 257 24.3998 254.9 22.3998C252.7 20.2998 251.7 17.7998 251.7 14.8998ZM253.1 33.5998L271.9 33.6998L271.7 92.8998L252.9 92.7998L253.1 33.5998Z" fill="#323430"/>
<path d="M292.4 33.6999L310.4 33.7999V41.7999H310.6C311.2 40.6999 312 39.4999 313.1 38.3999C314.2 37.2999 315.5 36.2999 317 35.3999C318.5 34.4999 320.2 33.7999 322.1 33.1999C324 32.5999 326.1 32.3999 328.4 32.3999C333.2 32.3999 337 33.0999 339.9 34.5999C342.8 35.9999 345.1 37.9999 346.7 40.4999C348.3 42.9999 349.4 45.9999 350 49.3999C350.6 52.7999 350.8 56.4999 350.8 60.4999L350.7 93.1999L331.9 93.0999L332 64.0999C332 62.3999 332 60.5999 331.8 58.7999C331.7 56.9999 331.3 55.2999 330.7 53.6999C330.1 52.1999 329.1 50.8999 327.8 49.8999C326.5 48.8999 324.7 48.3999 322.2 48.3999C319.7 48.3999 317.8 48.7999 316.3 49.6999C314.8 50.4999 313.6 51.6999 312.8 53.0999C312 54.4999 311.5 56.0999 311.2 57.8999C310.9 59.6999 310.8 61.5999 310.8 63.4999L311 92.9999L292.2 92.8999L292.4 33.6999Z" fill="#323430"/>
<path d="M423.6 83.1999C420.6 86.8999 416.8 89.7999 412.2 91.7999C407.6 93.7999 402.8 94.7999 397.9 94.7999C393.2 94.7999 388.8 93.9999 384.7 92.5999C380.6 91.0999 377 88.9999 374 86.2999C371 83.5999 368.6 80.2999 366.8 76.4999C365.1 72.6999 364.2 68.3999 364.2 63.6999C364.2 58.9999 365.1 54.6999 366.9 50.8999C368.7 47.0999 371.1 43.7999 374.1 41.0999C377.2 38.3999 380.7 36.2999 384.9 34.8999C389 33.4999 393.4 32.6999 398.1 32.7999C402.4 32.7999 406.4 33.5999 409.9 34.9999C413.4 36.4999 416.4 38.5999 418.9 41.2999C421.3 43.9999 423.2 47.2999 424.6 51.0999C425.9 54.8999 426.6 59.1999 426.6 63.8999V69.5999L383 69.3999C383.7 72.8999 385.4 75.6999 387.8 77.7999C390.2 79.8999 393.4 80.8999 397 80.8999C400.1 80.8999 402.7 80.2999 404.8 78.8999C406.9 77.5999 408.8 75.7999 410.4 73.6999L423.6 83.1999ZM407.8 57.0999C407.9 53.9999 406.9 51.3999 404.7 49.1999C402.5 46.9999 399.7 45.8999 396.3 45.8999C394.2 45.8999 392.4 46.1999 390.8 46.8999C389.2 47.4999 387.9 48.3999 386.7 49.3999C385.6 50.3999 384.7 51.5999 384.1 52.8999C383.5 54.1999 383.1 55.5999 383 57.0999H407.8Z" fill="#323430"/>
<path d="M0.899902 32.6001H5.8999L11.0999 50.2001H11.1999L16.9999 32.6001H21.7999L27.6999 50.2001H27.7999L32.8999 32.6001H37.6999L29.9999 56.1001H25.4999L19.2999 38.5001H19.1999L13.4999 56.1001H8.6999L0.899902 32.6001Z" fill="#323430"/>
<path d="M43.9998 18.7002H48.4998L48.3998 36.3002H48.4998C49.0998 35.0002 49.9998 34.0002 51.3998 33.3002C52.7998 32.5002 54.3998 32.1002 56.1998 32.2002C57.2998 32.2002 58.3998 32.4002 59.3998 32.7002C60.3998 33.1002 61.2998 33.6002 62.0998 34.3002C62.8998 35.0002 63.4998 36.0002 63.9998 37.1002C64.4998 38.2002 64.6998 39.6002 64.6998 41.1002L64.5998 56.2002H60.0998L60.1998 42.3002C60.1998 41.2002 60.0998 40.3002 59.7998 39.5002C59.4998 38.7002 59.0998 38.1002 58.5998 37.6002C58.0998 37.1002 57.4998 36.8002 56.8998 36.6002C56.2998 36.4002 55.5998 36.3002 54.8998 36.3002C53.9998 36.3002 53.0998 36.4002 52.2998 36.7002C51.4998 37.0002 50.7998 37.5002 50.1998 38.1002C49.5998 38.7002 49.0998 39.6002 48.7998 40.6002C48.4998 41.6002 48.2998 42.8002 48.2998 44.1002V56.2002H43.7998L43.9998 18.7002Z" fill="#323430"/>
<path d="M114.8 36.7998H108.4V47.4998C108.4 48.1998 108.4 48.7998 108.4 49.4998C108.4 50.0998 108.6 50.6998 108.8 51.1998C109 51.6998 109.3 52.0998 109.8 52.3998C110.3 52.6998 110.9 52.8998 111.8 52.8998C112.3 52.8998 112.9 52.8998 113.4 52.7998C114 52.6998 114.5 52.4998 114.9 52.2998V56.3998C114.4 56.6998 113.7 56.8998 112.8 56.9998C112 57.0998 111.3 57.1998 110.8 57.1998C109.1 57.1998 107.7 56.8998 106.8 56.4998C105.9 55.9998 105.2 55.3998 104.7 54.5998C104.3 53.7998 104 52.9998 103.9 51.9998C103.8 51.0998 103.8 50.0998 103.8 49.0998V36.7998H98.6001V32.8998H103.8V26.2998H108.3V32.8998H114.7L114.8 36.7998Z" fill="#323430"/>
<path d="M83.5999 74H77.1999V84.7C77.1999 85.4 77.1999 86 77.1999 86.7C77.1999 87.3 77.3999 87.9 77.5999 88.4C77.7999 88.9 78.0999 89.3 78.5999 89.6C78.9999 89.9 79.6999 90.1 80.5999 90.1C81.0999 90.1 81.6999 90.1 82.1999 90C82.7999 89.9 83.2999 89.7 83.6999 89.5V93.6C83.1999 93.9 82.4999 94.1 81.5999 94.2C80.7999 94.3 80.0999 94.4 79.5999 94.4C77.8999 94.4 76.4999 94.1 75.5999 93.7C74.6999 93.2 73.9999 92.6 73.4999 91.8C73.0999 91 72.7999 90.2 72.6999 89.2C72.5999 88.2 72.5999 87.3 72.5999 86.3V74H67.3999V70.1H72.5999V63.5H77.0999V70.1H83.4999L83.5999 74Z" fill="#323430"/>
<path d="M109.3 74.6002C108.8 73.5002 108.2 72.5002 107.4 71.8002C106.6 71.1002 105.7 70.5002 104.7 70.2002C103.7 69.8002 102.6 69.7002 101.5 69.7002C99.6998 69.7002 98.0998 70.1002 96.6998 70.8002C95.2998 71.6002 93.7998 72.6002 93.2998 73.8002V56.2002C93.1998 55.6002 93.2998 55.1002 93.2998 54.4002C93.2998 53.7002 93.2998 52.9002 93.2998 52.1002V40.1002C93.2998 39.1002 93.0998 38.1002 92.6998 37.1002C92.2998 36.2002 91.6998 35.3002 90.8998 34.6002C90.0998 33.9002 89.0998 33.3002 87.8998 32.9002C86.6998 32.5002 85.1998 32.2002 83.4998 32.2002C81.7998 32.2002 80.1998 32.5002 78.4998 33.1002C76.7998 33.7002 75.3998 34.5002 74.0998 35.7002L76.7998 38.5002C77.1998 38.2002 77.5998 37.9002 77.9998 37.6002C78.3998 37.3002 78.8998 37.0002 79.3998 36.7002C79.8998 36.5002 80.4998 36.2002 81.1998 36.1002C81.7998 35.9002 82.5998 35.9002 83.4998 35.9002C84.4998 35.9002 85.2998 36.0002 85.9998 36.3002C86.6998 36.6002 87.2998 37.0002 87.6998 37.4002C88.1998 37.9002 88.4998 38.4002 88.6998 39.0002C88.8998 39.6002 88.9998 40.2002 88.9998 40.8002V41.8002H85.6998C83.8998 41.8002 82.1998 41.9002 80.6998 42.2002C79.0998 42.5002 77.7998 42.9002 76.5998 43.6002C75.3998 44.2002 74.4998 45.1002 73.7998 46.1002C73.0998 47.1002 72.7998 48.4002 72.7998 49.9002C72.7998 51.1002 72.9998 52.1002 73.3998 53.0002C73.7998 53.9002 74.3998 54.6002 75.1998 55.2002C75.8998 55.8002 76.7998 56.2002 77.7998 56.5002C78.7998 56.8002 79.7998 57.0002 80.8998 57.0002C82.6998 57.0002 84.2998 56.7002 85.5998 56.1002C86.9998 55.5002 88.0998 54.4002 89.0998 52.9002H89.1998C89.1998 54.0002 89.1998 55.1002 89.1998 56.2002L89.0998 93.7002H93.1998V81.6002C93.1998 80.2002 93.6998 79.1002 94.0998 78.1002C94.3998 77.1002 94.8998 76.3002 95.4998 75.6002C96.0998 75.0002 96.7998 74.5002 97.5998 74.2002C98.3998 73.9002 99.2998 73.8002 100.2 73.8002C100.9 73.8002 101.6 73.9002 102.2 74.1002C102.8 74.3002 103.4 74.7002 103.9 75.1002C104.4 75.6002 104.8 76.2002 105.1 77.0002C105.4 77.8002 105.5 78.7002 105.5 79.8002L105.4 93.7002H109.9L110 78.6002C110 77.1002 109.8 75.7002 109.3 74.6002ZM88.9998 46.6002C88.9998 47.4002 88.8998 48.2002 88.5998 49.0002C88.3998 49.8002 87.9998 50.5002 87.4998 51.2002C86.9998 51.9002 86.2998 52.4002 85.3998 52.8002C84.4998 53.2002 83.4998 53.4002 82.2998 53.4002C80.6998 53.4002 79.4998 53.1002 78.5998 52.5002C77.6998 51.9002 77.1998 50.9002 77.1998 49.6002C77.1998 48.7002 77.4998 47.9002 78.0998 47.3002C78.6998 46.7002 79.3998 46.2002 80.2998 45.9002C81.1998 45.6002 82.1998 45.4002 83.2998 45.2002C84.3998 45.1002 85.4998 45.0002 86.5998 45.0002H88.9998V46.6002Z" fill="#323430"/>
<path d="M119.9 83.6998C119.9 84.6998 120.1 85.6998 120.6 86.4998C121 87.2998 121.6 88.0998 122.4 88.6998C123.1 89.2998 124 89.7998 124.9 90.0998C125.9 90.3998 126.9 90.5998 127.9 90.5998C129.3 90.5998 130.5 90.2998 131.5 89.5998C132.5 88.9998 133.5 88.0998 134.3 87.0998L137.7 89.6998C135.2 92.8998 131.7 94.4998 127.3 94.4998C125.4 94.4998 123.8 94.1998 122.3 93.4998C120.8 92.8998 119.5 91.9998 118.5 90.8998C117.5 89.7998 116.7 88.4998 116.1 86.9998C115.5 85.4998 115.3 83.8998 115.3 82.0998C115.3 80.2998 115.6 78.6998 116.2 77.1998C116.8 75.6998 117.7 74.3998 118.7 73.2998C119.8 72.1998 121.1 71.2998 122.6 70.6998C124.1 70.0998 125.7 69.7998 127.5 69.7998C129.6 69.7998 131.3 70.1998 132.8 70.8998C134.2 71.5998 135.4 72.5998 136.3 73.7998C137.2 74.9998 137.9 76.2998 138.3 77.7998C138.7 79.2998 138.9 80.7998 138.9 82.2998V83.8998L119.9 83.6998ZM134 80.1998C134 79.1998 133.8 78.2998 133.5 77.4998C133.2 76.6998 132.8 75.9998 132.2 75.2998C131.6 74.6998 130.9 74.1998 130.1 73.8998C129.3 73.4998 128.3 73.3998 127.1 73.3998C126 73.3998 125 73.5998 124.1 73.9998C123.2 74.3998 122.4 74.8998 121.8 75.5998C121.2 76.2998 120.7 76.9998 120.3 77.7998C119.9 78.5998 119.8 79.3998 119.8 80.1998H134Z" fill="#323430"/>
<path d="M210.4 98.9999C218.132 98.9999 224.4 92.3737 224.4 84.1999C224.4 76.0261 218.132 69.3999 210.4 69.3999C202.668 69.3999 196.4 76.0261 196.4 84.1999C196.4 92.3737 202.668 98.9999 210.4 98.9999Z" fill="#323430" stroke="#EDEDED" stroke-width="2.8346" stroke-miterlimit="10"/>
<path d="M223 78.2001C230.732 78.2001 237 71.5739 237 63.4001C237 55.2263 230.732 48.6001 223 48.6001C215.268 48.6001 209 55.2263 209 63.4001C209 71.5739 215.268 78.2001 223 78.2001Z" fill="#323430" stroke="#EDEDED" stroke-width="2.8346" stroke-miterlimit="10"/>
<path d="M199.2 78.2001C206.932 78.2001 213.2 71.5739 213.2 63.4001C213.2 55.2263 206.932 48.6001 199.2 48.6001C191.468 48.6001 185.2 55.2263 185.2 63.4001C185.2 71.5739 191.468 78.2001 199.2 78.2001Z" fill="#323430" stroke="#EDEDED" stroke-width="2.8346" stroke-miterlimit="10"/>
<path d="M188.8 55.4999C196.532 55.4999 202.8 48.8737 202.8 40.6999C202.8 32.5261 196.532 25.8999 188.8 25.8999C181.068 25.8999 174.8 32.5261 174.8 40.6999C174.8 48.8737 181.068 55.4999 188.8 55.4999Z" fill="#323430" stroke="#EDEDED" stroke-width="2.8346" stroke-miterlimit="10"/>
<path d="M233.7 55.4999C241.432 55.4999 247.7 48.8737 247.7 40.6999C247.7 32.5261 241.432 25.8999 233.7 25.8999C225.968 25.8999 219.7 32.5261 219.7 40.6999C219.7 48.8737 225.968 55.4999 233.7 55.4999Z" fill="#323430" stroke="#EDEDED" stroke-width="2.8346" stroke-miterlimit="10"/>
<path d="M210.4 55.4999C218.132 55.4999 224.4 48.8737 224.4 40.6999C224.4 32.5261 218.132 25.8999 210.4 25.8999C202.668 25.8999 196.4 32.5261 196.4 40.6999C196.4 48.8737 202.668 55.4999 210.4 55.4999Z" fill="#323430" stroke="#EDEDED" stroke-width="2.8346" stroke-miterlimit="10"/>
<path d="M223.4 1.69986C222.2 4.09986 220.6 6.09986 218.5 7.79986C217.4 8.69986 216.2 9.49986 215 10.0999C214.2 10.3999 213.3 10.7999 212.5 11.0999C210.1 12.4999 205.7 11.5 206 9C205.5 6.40014 208.602 6.55072 211.1 7.79986C212.5 8.5 213.1 9.09986 213.5 10.3999C214.6 11.9999 214.8 13.9999 214.7 15.8999C214.5 19.6999 212.7 23.0999 210.8 26.2999C209.8 27.9999 212.3 29.9999 213.6 28.3999C216.6 24.7999 219.3 20.4999 222.7 17.3999C224.8 15.3999 227.3 13.7999 230.2 13.0999C232.8 12.3999 237.9 12.1999 234.5 16.1999C230.9 20.3999 225.1 21.7999 219.8 20.9999C217.6 20.6999 216.6 24.0999 218.9 24.3999C225 25.2999 231.4 24.0999 236 19.6999C238.7 17.0999 243 11.1999 237.5 9.59986C225.2 5.89986 217.7 18.0999 211.1 25.9999C212 26.6999 213 27.3999 213.9 28.0999C217.3 22.2999 220.5 13.9999 216.3 7.79986C213.5 3.69986 206.3 1.59986 203 6.49986C199.9 11.1999 205.4 15.1999 209.8 15.1999C216.9 15.0999 223.4 9.49986 226.5 3.49986C227.5 1.49986 224.4 -0.300139 223.4 1.69986Z" fill="#323430"/>
</svg>
