<svg width="45" height="43" viewBox="0 0 45 43" fill="none" xmlns="http://www.w3.org/2000/svg">
<path d="M43.4807 6.14069C38.7717 2.75532 31.5231 0.733398 24.0894 0.733398C14.8974 0.733398 7.40655 3.77791 3.54136 9.08708C1.72582 11.579 0.721412 14.5331 0.555372 17.8617C0.408386 20.8261 0.933725 24.1056 2.11506 27.633C6.149 16.1574 17.4179 7.17361 30.4098 7.17361C30.4098 7.17361 18.2536 10.2078 10.6103 19.6099C8.8663 21.7419 7.4664 24.1082 6.45658 26.6311C4.29792 31.5081 3.18742 36.7449 3.19023 42.0344H8.63415C8.63415 42.0344 7.80668 37.1022 9.24387 31.4315C11.3693 31.7193 13.5126 31.872 15.6595 31.8886C20.6652 31.8886 24.2228 30.8609 26.8604 28.6556C29.2231 26.6801 30.5269 24.023 31.9069 21.2135C34.0137 16.9191 36.4009 12.0541 43.3337 8.2969C43.5293 8.19105 43.6942 8.04082 43.8135 7.85966C43.9328 7.6785 44.0029 7.47209 44.0175 7.25891C44.0321 7.04573 43.9907 6.83246 43.897 6.6382C43.8033 6.44394 43.6602 6.27478 43.4807 6.14586V6.14069Z" fill="black"/>
</svg>
