<svg width="20" height="20" viewBox="0 0 20 20" fill="none" xmlns="http://www.w3.org/2000/svg">
<g clip-path="url(#clip0)">
<path d="M19.4567 3.30718C17.4312 1.77222 14.3133 0.855469 11.1157 0.855469C7.16187 0.855469 3.93976 2.23587 2.27719 4.64309C1.49625 5.77293 1.06422 7.11235 0.992798 8.62155C0.929573 9.96565 1.15554 11.4526 1.66368 13.0519C3.39884 7.8488 8.24606 3.77551 13.8344 3.77551C13.8344 3.77551 8.6055 5.15122 5.31782 9.4142C4.56766 10.3809 3.96551 11.4538 3.53115 12.5977C2.60262 14.8089 2.12495 17.1833 2.12616 19.5816H4.46781C4.46781 19.5816 4.11187 17.3454 4.73007 14.7742C5.64431 14.9047 6.56624 14.9739 7.4897 14.9815C9.64285 14.9815 11.1731 14.5155 12.3076 13.5156C13.3239 12.6199 13.8847 11.4151 14.4784 10.1413C15.3846 8.1942 16.4114 5.98836 19.3935 4.28481C19.4776 4.23682 19.5485 4.1687 19.5999 4.08657C19.6512 4.00443 19.6813 3.91084 19.6876 3.81418C19.6939 3.71753 19.6761 3.62083 19.6358 3.53275C19.5955 3.44467 19.5339 3.36797 19.4567 3.30952V3.30718Z" fill="white"/>
</g>
<defs>
<clipPath id="clip0">
<rect width="18.7332" height="18.7332" fill="white" transform="translate(0.955078 0.845703)"/>
</clipPath>
</defs>
</svg>
